<mxfile host="app.diagrams.net" modified="2022-04-08T03:21:24.602Z" agent="5.0 (Windows NT 10.0; Win64; x64) AppleWebKit/537.36 (KHTML, like Gecko) Chrome/100.0.4896.60 Safari/537.36 Edg/100.0.1185.29" etag="rMpQF-oxs1-Fe5SQ0Jvz" version="17.4.1" type="github">
  <diagram id="hLnDCso5rJq28zrlRL6U" name="Page-1">
    <mxGraphModel dx="820" dy="450" grid="1" gridSize="10" guides="1" tooltips="1" connect="1" arrows="1" fold="1" page="1" pageScale="1" pageWidth="827" pageHeight="1169" math="0" shadow="0">
      <root>
        <mxCell id="0" />
        <mxCell id="1" parent="0" />
      </root>
    </mxGraphModel>
  </diagram>
</mxfile>
